# xmcd CD database file
#
# Track frame offsets:
#	150
#	7308
#	84504
#
# Disc length: 2933 seconds
#
# Revision: 0
# Processed by: cddbd v1.4PL0 Copyright (c) Steve Scherf et al.
# Submitted via: CDex 1.50beta10
#
DISCID=1c0b7303
DTITLE=Simonette Vaja and Ian Cameron Smith  - Guided Meditation For Sleep
DYEAR=2002
DGENRE=New Age
TTITLE0=Introduction 
TTITLE1=Serenity
TTITLE2=Guided Meditation For Sleep
EXTD=YEAR: 2002
EXTT0=
EXTT1=
EXTT2=
PLAYORDER=
